<svg width="11" height="15" viewBox="0 0 11 15" fill="none" xmlns="http://www.w3.org/2000/svg">
<path d="M8.47656 7.39453C9.33333 6.95703 9.70703 6.20964 9.59766 5.15234C9.54297 4.42318 9.21484 3.8763 8.61328 3.51172C8.12109 3.20182 7.41016 3.0013 6.48047 2.91016V0.75H5.14062V2.85547L4.10156 2.88281V0.75H2.76172V2.91016C2.50651 2.92839 1.89583 2.9375 0.929688 2.9375L0.109375 2.91016V4.33203H0.328125C0.856771 4.3138 1.20312 4.33203 1.36719 4.38672C1.6224 4.45964 1.77734 4.64193 1.83203 4.93359V10.8672C1.79557 11.0859 1.6862 11.2227 1.50391 11.2773C1.3763 11.3138 1.09375 11.3229 0.65625 11.3047H0.382812L0.109375 12.8906H2.76172V14.75H4.10156V12.918H5.14062V14.75H6.48047V12.8906C7.68359 12.8177 8.58594 12.599 9.1875 12.2344C9.88021 11.7969 10.2812 11.0951 10.3906 10.1289C10.4635 9.32682 10.3177 8.69792 9.95312 8.24219C9.64323 7.82292 9.15104 7.54036 8.47656 7.39453ZM4.12891 4.44141C4.16536 4.44141 4.2474 4.43229 4.375 4.41406C5.15885 4.39583 5.7513 4.44141 6.15234 4.55078C6.86328 4.7513 7.21875 5.15234 7.21875 5.75391C7.21875 6.35547 6.85417 6.7474 6.125 6.92969C5.70573 7.03906 5.11328 7.08464 4.34766 7.06641H4.12891V4.44141ZM4.12891 11.3047V8.40625H4.42969C5.35938 8.36979 6.05208 8.41536 6.50781 8.54297C7.34635 8.76172 7.76562 9.19922 7.76562 9.85547C7.76562 10.5117 7.33724 10.9492 6.48047 11.168C6.00651 11.2773 5.30469 11.3229 4.375 11.3047H4.12891Z" fill="white"/>
</svg>