<svg width="36" height="36" viewBox="0 0 36 36" fill="none" xmlns="http://www.w3.org/2000/svg">
<rect width="36" height="36" rx="8" fill="url(#paint0_linear)"/>
<path d="M24.9531 16.7891C26.6667 15.9141 27.4141 14.4193 27.1953 12.3047C27.0859 10.8464 26.4297 9.7526 25.2266 9.02344C24.2422 8.40365 22.8203 8.0026 20.9609 7.82031V3.5H18.2812V7.71094L16.2031 7.76562V3.5H13.5234V7.82031C13.013 7.85677 11.7917 7.875 9.85938 7.875L8.21875 7.82031V10.6641H8.65625C9.71354 10.6276 10.4062 10.6641 10.7344 10.7734C11.2448 10.9193 11.5547 11.2839 11.6641 11.8672V23.7344C11.5911 24.1719 11.3724 24.4453 11.0078 24.5547C10.7526 24.6276 10.1875 24.6458 9.3125 24.6094H8.76562L8.21875 27.7812H13.5234V31.5H16.2031V27.8359H18.2812V31.5H20.9609V27.7812C23.3672 27.6354 25.1719 27.1979 26.375 26.4688C27.7604 25.5938 28.5625 24.1901 28.7812 22.2578C28.9271 20.6536 28.6354 19.3958 27.9062 18.4844C27.2865 17.6458 26.3021 17.0807 24.9531 16.7891ZM16.2578 10.8828C16.3307 10.8828 16.4948 10.8646 16.75 10.8281C18.3177 10.7917 19.5026 10.8828 20.3047 11.1016C21.7266 11.5026 22.4375 12.3047 22.4375 13.5078C22.4375 14.7109 21.7083 15.4948 20.25 15.8594C19.4115 16.0781 18.2266 16.1693 16.6953 16.1328H16.2578V10.8828ZM16.2578 24.6094V18.8125H16.8594C18.7188 18.7396 20.1042 18.8307 21.0156 19.0859C22.6927 19.5234 23.5312 20.3984 23.5312 21.7109C23.5312 23.0234 22.6745 23.8984 20.9609 24.3359C20.013 24.5547 18.6094 24.6458 16.75 24.6094H16.2578Z" fill="white"/>
<defs>
<linearGradient id="paint0_linear" x1="18" y1="36" x2="18" y2="3.15" gradientUnits="userSpaceOnUse">
<stop stop-color="#FA00FF"/>
<stop offset="1" stop-color="#FF00B8"/>
</linearGradient>
</defs>
</svg>