<svg width="8" height="12" viewBox="0 0 8 12" fill="none" xmlns="http://www.w3.org/2000/svg">
<path d="M7.32 7.54C7.32 8.196 7.08 8.76 6.6 9.232C6.12 9.696 5.428 9.984 4.524 10.096V11.44H3.324V10.132C2.732 10.1 2.168 9.996 1.632 9.82C1.096 9.644 0.664 9.428 0.336 9.172L0.996 7.708C1.3 7.932 1.656 8.12 2.064 8.272C2.472 8.424 2.892 8.52 3.324 8.56V6.556C2.756 6.42 2.276 6.268 1.884 6.1C1.492 5.932 1.164 5.688 0.9 5.368C0.636 5.04 0.504 4.608 0.504 4.072C0.504 3.408 0.744 2.84 1.224 2.368C1.712 1.888 2.412 1.596 3.324 1.492V0.159999H4.524V1.468C5.508 1.548 6.32 1.792 6.96 2.2L6.36 3.676C5.76 3.332 5.148 3.124 4.524 3.052V5.092C5.084 5.22 5.556 5.368 5.94 5.536C6.332 5.696 6.66 5.94 6.924 6.268C7.188 6.588 7.32 7.012 7.32 7.54ZM2.436 3.976C2.436 4.176 2.512 4.34 2.664 4.468C2.816 4.596 3.036 4.704 3.324 4.792V3.088C3.02 3.16 2.796 3.276 2.652 3.436C2.508 3.588 2.436 3.768 2.436 3.976ZM4.524 8.512C4.812 8.448 5.028 8.344 5.172 8.2C5.316 8.056 5.388 7.884 5.388 7.684C5.388 7.484 5.312 7.32 5.16 7.192C5.016 7.064 4.804 6.952 4.524 6.856V8.512Z" fill="#484848"/>
</svg>
