<svg width="10" height="10" viewBox="0 0 10 10" fill="none" xmlns="http://www.w3.org/2000/svg">
<path d="M6.168 7.488C7.008 7.488 7.716 7.156 8.292 6.492L9.528 7.644C9.128 8.132 8.632 8.504 8.04 8.76C7.456 9.016 6.8 9.144 6.072 9.144C5.376 9.144 4.728 9.02 4.128 8.772C3.536 8.524 3.032 8.172 2.616 7.716C2.2 7.26 1.9 6.732 1.716 6.132H0.36V5.124H1.536C1.528 5.052 1.524 4.944 1.524 4.8C1.524 4.656 1.528 4.548 1.536 4.476H0.36V3.468H1.716C1.9 2.868 2.2 2.34 2.616 1.884C3.032 1.428 3.536 1.076 4.128 0.827999C4.728 0.58 5.376 0.456 6.072 0.456C6.8 0.456 7.456 0.584 8.04 0.84C8.632 1.096 9.128 1.464 9.528 1.944L8.292 3.096C7.708 2.44 7 2.112 6.168 2.112C5.64 2.112 5.168 2.232 4.752 2.472C4.336 2.712 4.016 3.044 3.792 3.468H6.828V4.476H3.492C3.484 4.548 3.48 4.656 3.48 4.8C3.48 4.944 3.484 5.052 3.492 5.124H6.828V6.132H3.792C4.016 6.556 4.336 6.888 4.752 7.128C5.168 7.368 5.64 7.488 6.168 7.488Z" fill="white"/>
</svg>