<svg width="36" height="24" viewBox="0 0 36 24" fill="none" xmlns="http://www.w3.org/2000/svg">
<path d="M22 9.21204L6.49097 9.37749" stroke="#6C7D85" stroke-linecap="round" stroke-linejoin="round"/>
<path d="M10.7324 14.619L6.31825 10.1586C5.89401 9.72866 5.89401 9.03318 6.31825 8.6032L10.7324 4.14282" stroke="#6C7D85" stroke-miterlimit="2.61313" stroke-linecap="round"/>
<path d="M14.0918 14.6017L29.4192 14.4749" stroke="#6C7D85" stroke-linecap="round" stroke-linejoin="round"/>
<path d="M25.3241 19.6483L29.6045 15.2328C30.0158 14.8072 30.0031 14.1314 29.5761 13.7214L25.1333 9.46851" stroke="#6C7D85" stroke-miterlimit="2.61313" stroke-linecap="round"/>
<path fill-rule="evenodd" clip-rule="evenodd" d="M32.5207 23H3.47736C2.10941 23 1 21.8435 1 20.4154V3.58457C1 2.15853 2.10941 1 3.47736 1H32.5207C33.8887 1 35 2.15853 35 3.58457V20.4154C35 21.8435 33.8887 23 32.5207 23Z" stroke="#6C7D85" stroke-linecap="round" stroke-linejoin="round"/>
</svg>