<svg width="22" height="22" viewBox="0 0 22 22" fill="none" xmlns="http://www.w3.org/2000/svg">
<g clip-path="url(#clip0)">
<path fill-rule="evenodd" clip-rule="evenodd" d="M21.9306 9.77857C21.8958 9.46932 21.5352 9.23693 21.2235 9.23693C20.2154 9.23693 19.3209 8.64503 18.9457 7.72964C18.5625 6.79206 18.8096 5.69863 19.5609 5.00948C19.7974 4.7933 19.8261 4.43142 19.6278 4.18004C19.1118 3.52486 18.5254 2.93304 17.8851 2.42014C17.6344 2.21893 17.2665 2.24693 17.0491 2.48767C16.3935 3.21381 15.2157 3.48369 14.3056 3.10396C13.3586 2.70557 12.7614 1.74589 12.8198 0.715732C12.839 0.392156 12.6026 0.110817 12.28 0.073245C11.4583 -0.0217897 10.6294 -0.0247365 9.80529 0.0666965C9.48638 0.101895 9.2499 0.376603 9.26062 0.696086C9.29647 1.71609 8.69205 2.65899 7.75439 3.04306C6.8552 3.41035 5.68573 3.14276 5.03137 2.42308C4.81511 2.18603 4.45322 2.15689 4.20127 2.35326C3.542 2.87051 2.94241 3.46282 2.42172 4.11259C2.21864 4.3652 2.24852 4.73134 2.48737 4.94866C3.25297 5.64198 3.50017 6.74491 3.10244 7.69329C2.72271 8.59747 1.78382 9.1802 0.708971 9.1802C0.360183 9.16899 0.11175 9.4031 0.0736056 9.72021C-0.0231481 10.5466 -0.0242941 11.3887 0.068858 12.2218C0.103401 12.5324 0.474945 12.7627 0.790172 12.7627C1.74805 12.7382 2.6677 13.3313 3.05349 14.2701C3.43805 15.2077 3.19084 16.3004 2.43842 16.9902C2.20309 17.2063 2.17321 17.5676 2.37155 17.819C2.88265 18.47 3.46915 19.0624 4.11172 19.5796C4.36375 19.7827 4.73047 19.754 4.94894 19.5133C5.60706 18.7853 6.78472 18.516 7.6912 18.8964C8.64064 19.2936 9.23786 20.2532 9.17942 21.2839C9.16035 21.6076 9.39797 21.8895 9.71926 21.9265C10.1396 21.9755 10.5625 22 10.9865 22C11.389 22 11.7915 21.9779 12.194 21.9331C12.513 21.8979 12.7493 21.6232 12.7386 21.3031C12.7017 20.2837 13.3072 19.3408 14.2436 18.9574C15.1488 18.5877 16.3134 18.8583 16.9678 19.5772C17.1853 19.8138 17.5447 19.8423 17.798 19.6466C18.4561 19.1306 19.0544 18.5388 19.5776 17.8872C19.7806 17.6352 19.7519 17.2685 19.5118 17.0512C18.7462 16.3579 18.4978 15.2548 18.8955 14.3071C19.2695 13.4149 20.1735 12.8159 21.1459 12.8159L21.2819 12.8194C21.5973 12.8451 21.8875 12.6021 21.9257 12.2802C22.0226 11.453 22.0238 10.6117 21.9306 9.77857ZM11.0172 14.6924C8.99385 14.6924 7.34806 13.0466 7.34806 11.0233C7.34806 9.00004 8.99385 7.35416 11.0172 7.35416C13.0404 7.35416 14.6862 9.00004 14.6862 11.0233C14.6862 13.0466 13.0404 14.6924 11.0172 14.6924Z" fill="#484848"/>
</g>
<defs>
<clipPath id="clip0">
<rect width="22" height="22" fill="white"/>
</clipPath>
</defs>
</svg>