<svg width="9" height="9" viewBox="0 0 9 9" fill="none" xmlns="http://www.w3.org/2000/svg">
<path d="M3.48 6.252V6.924H6.072V7.92H3.48V9H1.524V7.92H0.36V6.924H1.524V0.599999H5.16C6.304 0.599999 7.196 0.839999 7.836 1.32C8.484 1.8 8.808 2.504 8.808 3.432C8.808 4.352 8.484 5.052 7.836 5.532C7.196 6.012 6.304 6.252 5.16 6.252H3.48ZM6.84 3.444C6.84 3.036 6.692 2.724 6.396 2.508C6.108 2.292 5.692 2.184 5.148 2.184H3.48V4.728H5.148C5.692 4.728 6.108 4.62 6.396 4.404C6.692 4.18 6.84 3.86 6.84 3.444Z" fill="#484848"/>
</svg>