<svg width="37" height="24" viewBox="0 0 37 24" fill="none" xmlns="http://www.w3.org/2000/svg">
<path fill-rule="evenodd" clip-rule="evenodd" d="M31.2499 20H10.7487C9.78311 20 9 19.1589 9 18.1203V5.87968C9 4.84257 9.78311 4 10.7487 4H31.2499C32.2155 4 33 4.84257 33 5.87968V18.1203C33 19.1589 32.2155 20 31.2499 20Z" stroke="#6C7D85" stroke-linecap="round" stroke-linejoin="round"/>
<path fill-rule="evenodd" clip-rule="evenodd" d="M33.4478 23H3.55022C2.14204 23 1 21.8435 1 20.4154V3.58457C1 2.15853 2.14204 1 3.55022 1H33.4478C34.856 1 36 2.15853 36 3.58457V20.4154C36 21.8435 34.856 23 33.4478 23Z" stroke="#6C7D85" stroke-linecap="round" stroke-linejoin="round"/>
<path d="M19.0488 8L22.6888 11.4061C23.0387 11.7345 23.0387 12.2655 22.6888 12.5939L19.0488 16" stroke="#6C7D85" stroke-linecap="round" stroke-linejoin="round"/>
<path d="M13 8L16.6401 11.4061C16.9899 11.7345 16.9899 12.2655 16.6401 12.5939L13 16" stroke="#6C7D85" stroke-linecap="round" stroke-linejoin="round"/>
<path d="M25.0977 8L28.7377 11.4061C29.0875 11.7345 29.0875 12.2655 28.7377 12.5939L25.0977 16" stroke="#6C7D85" stroke-linecap="round" stroke-linejoin="round"/>
</svg>