<svg width="105" height="96" viewBox="0 0 105 96" fill="none" xmlns="http://www.w3.org/2000/svg">
<path fill-rule="evenodd" clip-rule="evenodd" d="M138.014 81.3637H45.156C40.7824 81.3637 37.2354 77.5405 37.2354 72.8197V17.1804C37.2354 12.4663 40.7824 8.63641 45.156 8.63641H138.014C142.388 8.63641 145.941 12.4663 145.941 17.1804V72.8197C145.941 77.5405 142.388 81.3637 138.014 81.3637Z" stroke="#589DFC" stroke-width="2" stroke-linecap="round" stroke-linejoin="round"/>
<path fill-rule="evenodd" clip-rule="evenodd" d="M143.77 95H12.221C6.02497 95 1 89.7431 1 83.252V6.74803C1 0.266042 6.02497 -5 12.221 -5H143.77C149.966 -5 155 0.266042 155 6.74803V83.252C155 89.7431 149.966 95 143.77 95Z" stroke="#589DFC" stroke-width="2" stroke-linecap="round" stroke-linejoin="round"/>
<path d="M82.75 26.8182L99.2371 42.3005C100.822 43.793 100.822 46.207 99.2371 47.6995L82.75 63.1818" stroke="#589DFC" stroke-width="2" stroke-linecap="round" stroke-linejoin="round"/>
<path d="M55.3525 26.8182L71.8399 42.3005C73.4245 43.793 73.4245 46.207 71.8399 47.6995L55.3525 63.1818" stroke="#589DFC" stroke-width="2" stroke-linecap="round" stroke-linejoin="round"/>
</svg>