<svg width="36" height="36" viewBox="0 0 36 36" fill="none" xmlns="http://www.w3.org/2000/svg">
<rect width="36" height="36" rx="8" fill="url(#paint0_linear)"/>
<path d="M27.14 15.008V17.332H7.904V15.008H20.252C20.7373 14.7093 20.98 14.3547 20.98 13.944C20.98 13.272 20.672 12.7307 20.056 12.32C19.44 11.9093 18.5067 11.704 17.256 11.704C15.3707 11.704 13.4947 12.0867 11.628 12.852L10.592 9.408C12.7573 8.49333 14.932 8.036 17.116 8.036C18.796 8.036 20.2613 8.288 21.512 8.792C22.7813 9.296 23.752 10.0147 24.424 10.948C25.1147 11.8627 25.46 12.936 25.46 14.168C25.46 14.4667 25.432 14.7467 25.376 15.008H27.14ZM7.904 18.872H27.14V21.196H15.268C14.484 21.5507 14.092 22.0173 14.092 22.596C14.092 23.2307 14.4 23.744 15.016 24.136C15.632 24.5093 16.584 24.696 17.872 24.696C19.048 24.696 20.2333 24.5467 21.428 24.248C22.6227 23.9493 23.6587 23.548 24.536 23.044L25.684 26.46C24.4893 27.076 23.2293 27.552 21.904 27.888C20.5787 28.2053 19.272 28.364 17.984 28.364C16.2667 28.364 14.7733 28.1213 13.504 27.636C12.2533 27.132 11.2827 26.4227 10.592 25.508C9.92 24.5747 9.584 23.492 9.584 22.26C9.584 21.8867 9.63067 21.532 9.724 21.196H7.904V18.872Z" fill="white"/>
<defs>
<linearGradient id="paint0_linear" x1="18" y1="0" x2="18" y2="76.5" gradientUnits="userSpaceOnUse">
<stop stop-color="#000AFF"/>
<stop offset="1" stop-color="#00FFE0"/>
</linearGradient>
</defs>
</svg>