<svg width="10" height="10" viewBox="0 0 10 10" fill="none" xmlns="http://www.w3.org/2000/svg">
<path d="M9.06 3.432V4.428H0.816V3.432H6.108C6.316 3.304 6.42 3.152 6.42 2.976C6.42 2.688 6.288 2.456 6.024 2.28C5.76 2.104 5.36 2.016 4.824 2.016C4.016 2.016 3.212 2.18 2.412 2.508L1.968 1.032C2.896 0.639999 3.828 0.443999 4.764 0.443999C5.484 0.443999 6.112 0.551999 6.648 0.767999C7.192 0.983999 7.608 1.292 7.896 1.692C8.192 2.084 8.34 2.544 8.34 3.072C8.34 3.2 8.328 3.32 8.304 3.432H9.06ZM0.816 5.088H9.06V6.084H3.972C3.636 6.236 3.468 6.436 3.468 6.684C3.468 6.956 3.6 7.176 3.864 7.344C4.128 7.504 4.536 7.584 5.088 7.584C5.592 7.584 6.1 7.52 6.612 7.392C7.124 7.264 7.568 7.092 7.944 6.876L8.436 8.34C7.924 8.604 7.384 8.808 6.816 8.952C6.248 9.088 5.688 9.156 5.136 9.156C4.4 9.156 3.76 9.052 3.216 8.844C2.68 8.628 2.264 8.324 1.968 7.932C1.68 7.532 1.536 7.068 1.536 6.54C1.536 6.38 1.556 6.228 1.596 6.084H0.816V5.088Z" fill="#484848"/>
</svg>