<svg width="113" height="98" viewBox="0 0 113 98" fill="none" xmlns="http://www.w3.org/2000/svg">
<g opacity="0.6">
<path fill-rule="evenodd" clip-rule="evenodd" d="M29.0258 15.1788H145.099C150.566 15.1788 155 19.4801 155 24.7912V87.3876C155 92.6912 150.566 96.9999 145.099 96.9999H29.0258C23.5587 96.9999 19.1172 92.6912 19.1172 87.3876V24.7912C19.1172 19.4801 23.5587 15.1788 29.0258 15.1788Z" stroke="#589DFC" stroke-width="2" stroke-linecap="round" stroke-linejoin="round"/>
<path d="M136.882 14.8957V6.61237C136.882 1.30874 132.449 -3 126.982 -3H10.9086C5.44151 -3 1 1.30874 1 6.61237V69.2087C1 74.5198 1 78.8211 10.9086 78.8211H19" stroke="#589DFC" stroke-width="2" stroke-linecap="round" stroke-linejoin="round"/>
<path d="M78 79.1511L103.462 57.8542C105.748 55.8087 105.748 52.4916 103.462 50.4386L78 29.1493" stroke="#589DFC" stroke-width="2" stroke-linecap="round" stroke-linejoin="round"/>
</g>
</svg>