<svg width="36" height="24" viewBox="0 0 36 24" fill="none" xmlns="http://www.w3.org/2000/svg">
<path fill-rule="evenodd" clip-rule="evenodd" d="M7.18761 5H32.8141C34.0211 5 35 5.94643 35 7.11506V20.8885C35 22.0555 34.0211 23.0036 32.8141 23.0036H7.18761C5.98059 23.0036 5 22.0555 5 20.8885V7.11506C5 5.94643 5.98059 5 7.18761 5Z" stroke="#6C7D85" stroke-linecap="round" stroke-linejoin="round"/>
<path d="M3.18761 19.0036C1.98059 19.0036 1 18.0571 1 16.8885V3.11506C1 1.94808 1.98059 1 3.18761 1H28.8141C30.0211 1 31 1.94808 31 3.11506V4.93769" stroke="#6C7D85" stroke-linecap="round" stroke-linejoin="round"/>
<path d="M18 19.0761L23.6214 14.3901C24.1262 13.94 24.1262 13.2101 23.6214 12.7584L18 8.07397" stroke="#6C7D85" stroke-linecap="round" stroke-linejoin="round"/>
</svg>